<?xml version="1.0" encoding="UTF-8"?>
<?xml-stylesheet href="https://cdnjs.cloudflare.com/ajax/libs/font-awesome/6.5.2/css/all.min.css" type="text/css"?>
<svg aria-roledescription="er" role="graphics-document document" viewBox="0 0 165.9666748046875 493.5" style="max-width: 100%;" xmlns="http://www.w3.org/2000/svg" width="100%" id="graph-div" height="100%" xmlns:xlink="http://www.w3.org/1999/xlink"><style>#graph-div{font-family:"trebuchet ms",verdana,arial,sans-serif;font-size:16px;fill:#ccc;}#graph-div .error-icon{fill:#a44141;}#graph-div .error-text{fill:#ddd;stroke:#ddd;}#graph-div .edge-thickness-normal{stroke-width:2px;}#graph-div .edge-thickness-thick{stroke-width:3.5px;}#graph-div .edge-pattern-solid{stroke-dasharray:0;}#graph-div .edge-pattern-dashed{stroke-dasharray:3;}#graph-div .edge-pattern-dotted{stroke-dasharray:2;}#graph-div .marker{fill:lightgrey;stroke:lightgrey;}#graph-div .marker.cross{stroke:lightgrey;}#graph-div svg{font-family:"trebuchet ms",verdana,arial,sans-serif;font-size:16px;}#graph-div .entityBox{fill:#1f2020;stroke:#81B1DB;}#graph-div .attributeBoxOdd{fill:hsl(0, 0%, 32%);stroke:#81B1DB;}#graph-div .attributeBoxEven{fill:hsl(0, 0%, 22%);stroke:#81B1DB;}#graph-div .relationshipLabelBox{fill:hsl(20, 1.5873015873%, 12.3529411765%);opacity:0.7;background-color:hsl(20, 1.5873015873%, 12.3529411765%);}#graph-div .relationshipLabelBox rect{opacity:0.5;}#graph-div .relationshipLine{stroke:lightgrey;}#graph-div .entityTitleText{text-anchor:middle;font-size:18px;fill:#ccc;}#graph-div #MD_PARENT_START{fill:#f5f5f5!important;stroke:lightgrey!important;stroke-width:1;}#graph-div #MD_PARENT_END{fill:#f5f5f5!important;stroke:lightgrey!important;stroke-width:1;}#graph-div :root{--mermaid-font-family:"trebuchet ms",verdana,arial,sans-serif;}</style><g></g><defs><marker orient="auto" markerHeight="240" markerWidth="190" refY="7" refX="0" id="MD_PARENT_START"><path d="M 18,7 L9,13 L1,7 L9,1 Z"></path></marker></defs><defs><marker orient="auto" markerHeight="28" markerWidth="20" refY="7" refX="19" id="MD_PARENT_END"><path d="M 18,7 L9,13 L1,7 L9,1 Z"></path></marker></defs><defs><marker orient="auto" markerHeight="18" markerWidth="18" refY="9" refX="0" id="ONLY_ONE_START"><path d="M9,0 L9,18 M15,0 L15,18" fill="none" stroke="gray"></path></marker></defs><defs><marker orient="auto" markerHeight="18" markerWidth="18" refY="9" refX="18" id="ONLY_ONE_END"><path d="M3,0 L3,18 M9,0 L9,18" fill="none" stroke="gray"></path></marker></defs><defs><marker orient="auto" markerHeight="18" markerWidth="30" refY="9" refX="0" id="ZERO_OR_ONE_START"><circle r="6" cy="9" cx="21" fill="white" stroke="gray"></circle><path d="M9,0 L9,18" fill="none" stroke="gray"></path></marker></defs><defs><marker orient="auto" markerHeight="18" markerWidth="30" refY="9" refX="30" id="ZERO_OR_ONE_END"><circle r="6" cy="9" cx="9" fill="white" stroke="gray"></circle><path d="M21,0 L21,18" fill="none" stroke="gray"></path></marker></defs><defs><marker orient="auto" markerHeight="36" markerWidth="45" refY="18" refX="18" id="ONE_OR_MORE_START"><path d="M0,18 Q 18,0 36,18 Q 18,36 0,18 M42,9 L42,27" fill="none" stroke="gray"></path></marker></defs><defs><marker orient="auto" markerHeight="36" markerWidth="45" refY="18" refX="27" id="ONE_OR_MORE_END"><path d="M3,9 L3,27 M9,18 Q27,0 45,18 Q27,36 9,18" fill="none" stroke="gray"></path></marker></defs><defs><marker orient="auto" markerHeight="36" markerWidth="57" refY="18" refX="18" id="ZERO_OR_MORE_START"><circle r="6" cy="18" cx="48" fill="white" stroke="gray"></circle><path d="M0,18 Q18,0 36,18 Q18,36 0,18" fill="none" stroke="gray"></path></marker></defs><defs><marker orient="auto" markerHeight="36" markerWidth="57" refY="18" refX="39" id="ZERO_OR_MORE_END"><circle r="6" cy="18" cx="9" fill="white" stroke="gray"></circle><path d="M21,18 Q39,0 57,18 Q39,36 21,18" fill="none" stroke="gray"></path></marker></defs><path marker-start="url(#ONLY_ONE_START)" marker-end="url(#ZERO_OR_MORE_END)" style="stroke: gray; fill: none;" d="M82.983,304L82.983,312.333C82.983,320.667,82.983,337.333,82.983,354C82.983,370.667,82.983,387.333,82.983,395.667L82.983,404" class="er relationshipLine"></path><path marker-start="url(#ZERO_OR_MORE_START)" marker-end="url(#ZERO_OR_MORE_END)" style="stroke: gray; fill: none;" d="M82.983,112L82.983,120.333C82.983,128.667,82.983,145.333,82.983,162C82.983,178.667,82.983,195.333,82.983,203.667L82.983,212" class="er relationshipLine"></path><g transform="translate(31.099998474121094,404 )" id="entity-Manufacturer-6befdd42-874b-5250-9f3b-1717826e644a"><rect height="69.5" width="103.76667022705078" y="0" x="0" class="er entityBox"></rect><text transform="translate(51.88333511352539,12.25)" style="dominant-baseline: middle; text-anchor: middle; font-size: 12px;" y="0" x="0" id="text-entity-Manufacturer-6befdd42-874b-5250-9f3b-1717826e644a" class="er entityLabel">Manufacturer</text><rect height="22.5" width="52.275001525878906" y="24.5" x="0" class="er attributeBoxOdd"></rect><text transform="translate(5,35.75)" style="dominant-baseline: middle; font-size: 10.2px;" y="0" x="0" id="text-entity-Manufacturer-6befdd42-874b-5250-9f3b-1717826e644a-attr-1-type" class="er entityLabel">int</text><rect height="22.5" width="51.491668701171875" y="24.5" x="52.275001525878906" class="er attributeBoxOdd"></rect><text transform="translate(57.275001525878906,35.75)" style="dominant-baseline: middle; font-size: 10.2px;" y="0" x="0" id="text-entity-Manufacturer-6befdd42-874b-5250-9f3b-1717826e644a-attr-1-name" class="er entityLabel">id</text><rect height="22.5" width="52.275001525878906" y="47" x="0" class="er attributeBoxEven"></rect><text transform="translate(5,58.25)" style="dominant-baseline: middle; font-size: 10.2px;" y="0" x="0" id="text-entity-Manufacturer-6befdd42-874b-5250-9f3b-1717826e644a-attr-2-type" class="er entityLabel">string</text><rect height="22.5" width="51.491668701171875" y="47" x="52.275001525878906" class="er attributeBoxEven"></rect><text transform="translate(57.275001525878906,58.25)" style="dominant-baseline: middle; font-size: 10.2px;" y="0" x="0" id="text-entity-Manufacturer-6befdd42-874b-5250-9f3b-1717826e644a-attr-2-name" class="er entityLabel">name</text></g><g transform="translate(20,212 )" id="entity-Vehicle-41182262-62dc-5a53-a24b-9ac0ff6daf9a"><rect height="92" width="125.96666717529297" y="0" x="0" class="er entityBox"></rect><text transform="translate(62.983333587646484,12.25)" style="dominant-baseline: middle; text-anchor: middle; font-size: 12px;" y="0" x="0" id="text-entity-Vehicle-41182262-62dc-5a53-a24b-9ac0ff6daf9a" class="er entityLabel">Vehicle</text><rect height="22.5" width="37.75" y="24.5" x="0" class="er attributeBoxOdd"></rect><text transform="translate(5,35.75)" style="dominant-baseline: middle; font-size: 10.2px;" y="0" x="0" id="text-entity-Vehicle-41182262-62dc-5a53-a24b-9ac0ff6daf9a-attr-1-type" class="er entityLabel">int</text><rect height="22.5" width="88.21666717529297" y="24.5" x="37.75" class="er attributeBoxOdd"></rect><text transform="translate(42.75,35.75)" style="dominant-baseline: middle; font-size: 10.2px;" y="0" x="0" id="text-entity-Vehicle-41182262-62dc-5a53-a24b-9ac0ff6daf9a-attr-1-name" class="er entityLabel">id</text><rect height="22.5" width="37.75" y="47" x="0" class="er attributeBoxEven"></rect><text transform="translate(5,58.25)" style="dominant-baseline: middle; font-size: 10.2px;" y="0" x="0" id="text-entity-Vehicle-41182262-62dc-5a53-a24b-9ac0ff6daf9a-attr-2-type" class="er entityLabel">string</text><rect height="22.5" width="88.21666717529297" y="47" x="37.75" class="er attributeBoxEven"></rect><text transform="translate(42.75,58.25)" style="dominant-baseline: middle; font-size: 10.2px;" y="0" x="0" id="text-entity-Vehicle-41182262-62dc-5a53-a24b-9ac0ff6daf9a-attr-2-name" class="er entityLabel">name</text><rect height="22.5" width="37.75" y="69.5" x="0" class="er attributeBoxOdd"></rect><text transform="translate(5,80.75)" style="dominant-baseline: middle; font-size: 10.2px;" y="0" x="0" id="text-entity-Vehicle-41182262-62dc-5a53-a24b-9ac0ff6daf9a-attr-3-type" class="er entityLabel">int</text><rect height="22.5" width="88.21666717529297" y="69.5" x="37.75" class="er attributeBoxOdd"></rect><text transform="translate(42.75,80.75)" style="dominant-baseline: middle; font-size: 10.2px;" y="0" x="0" id="text-entity-Vehicle-41182262-62dc-5a53-a24b-9ac0ff6daf9a-attr-3-name" class="er entityLabel">manufacturer_id</text></g><g transform="translate(32.983333587646484,20 )" id="entity-Part-b650a105-17a7-59ca-95da-f9dcb60cc8c9"><rect height="92" width="100" y="0" x="0" class="er entityBox"></rect><text transform="translate(50,12.25)" style="dominant-baseline: middle; text-anchor: middle; font-size: 12px;" y="0" x="0" id="text-entity-Part-b650a105-17a7-59ca-95da-f9dcb60cc8c9" class="er entityLabel">Part</text><rect height="22.5" width="55.54166603088379" y="24.5" x="0" class="er attributeBoxOdd"></rect><text transform="translate(5,35.75)" style="dominant-baseline: middle; font-size: 10.2px;" y="0" x="0" id="text-entity-Part-b650a105-17a7-59ca-95da-f9dcb60cc8c9-attr-1-type" class="er entityLabel">int</text><rect height="22.5" width="44.45833396911621" y="24.5" x="55.54166603088379" class="er attributeBoxOdd"></rect><text transform="translate(60.54166603088379,35.75)" style="dominant-baseline: middle; font-size: 10.2px;" y="0" x="0" id="text-entity-Part-b650a105-17a7-59ca-95da-f9dcb60cc8c9-attr-1-name" class="er entityLabel">id</text><rect height="22.5" width="55.54166603088379" y="47" x="0" class="er attributeBoxEven"></rect><text transform="translate(5,58.25)" style="dominant-baseline: middle; font-size: 10.2px;" y="0" x="0" id="text-entity-Part-b650a105-17a7-59ca-95da-f9dcb60cc8c9-attr-2-type" class="er entityLabel">string</text><rect height="22.5" width="44.45833396911621" y="47" x="55.54166603088379" class="er attributeBoxEven"></rect><text transform="translate(60.54166603088379,58.25)" style="dominant-baseline: middle; font-size: 10.2px;" y="0" x="0" id="text-entity-Part-b650a105-17a7-59ca-95da-f9dcb60cc8c9-attr-2-name" class="er entityLabel">name</text><rect height="22.5" width="55.54166603088379" y="69.5" x="0" class="er attributeBoxOdd"></rect><text transform="translate(5,80.75)" style="dominant-baseline: middle; font-size: 10.2px;" y="0" x="0" id="text-entity-Part-b650a105-17a7-59ca-95da-f9dcb60cc8c9-attr-3-type" class="er entityLabel">decimal</text><rect height="22.5" width="44.45833396911621" y="69.5" x="55.54166603088379" class="er attributeBoxOdd"></rect><text transform="translate(60.54166603088379,80.75)" style="dominant-baseline: middle; font-size: 10.2px;" y="0" x="0" id="text-entity-Part-b650a105-17a7-59ca-95da-f9dcb60cc8c9-attr-3-name" class="er entityLabel">cost</text></g><rect height="14.5" width="52.04999923706055" y="346.75" x="56.9580020904541" class="er relationshipLabelBox"></rect><text style="text-anchor: middle; dominant-baseline: middle; font-size: 12px;" y="354" x="82.98300170898438" id="rel110" class="er relationshipLabel">has many</text><rect height="14.5" width="77.88333129882812" y="154.75" x="44.04133605957031" class="er relationshipLabelBox"></rect><text style="text-anchor: middle; dominant-baseline: middle; font-size: 12px;" y="162" x="82.98300170898438" id="rel111" class="er relationshipLabel">many to many</text></svg>